<?xml version="1.0" encoding="UTF-8"?>
<svg xmlns="http://www.w3.org/2000/svg" viewBox="0 0 483.22 489.75">
  <defs>
    <style>
      .cls-1 {
        isolation: isolate;
      }

      .cls-2 {
        mix-blend-mode: overlay;
        opacity: .2;
      }

      .cls-3 {
        fill: #d7ccf3;
        stroke: #a8b3ec;
        stroke-miterlimit: 10;
        stroke-width: 1.64px;
      }
    </style>
  </defs>
  <g class="cls-1">
    <g id="Layer_1" data-name="Layer 1">
      <g>
        <g class="cls-2">
          <polygon class="cls-3" points="133.37 63.95 238.17 2.24 344.2 61.86 345.4 183.18 240.58 244.88 134.57 185.27 133.37 63.95"/>
          <path class="cls-3" d="M240.59,246.16l-.56-.31-106.58-59.94-1.22-122.61L238.16.95l107.15,60.25,1.22,122.61-.56.33-105.37,62.03ZM135.68,184.61l104.89,58.98,103.7-61.05-1.19-120.03L238.19,3.52l-103.7,61.05,1.19,120.03Z"/>
        </g>
        <g class="cls-2">
          <polygon class="cls-3" points="135.77 306.59 240.58 244.88 346.6 304.5 347.8 425.82 242.98 487.52 136.97 427.91 135.77 306.59"/>
          <path class="cls-3" d="M243,488.81l-.56-.31-106.58-59.94-1.22-122.61,105.92-62.36,107.15,60.25,1.22,122.61-.56.33-105.37,62.03ZM138.08,427.25l104.89,58.98,103.7-61.05-1.19-120.03-104.89-58.98-103.7,61.05,1.19,120.03Z"/>
        </g>
        <g class="cls-2">
          <polygon class="cls-3" points="421.87 142.74 480.98 249.03 418.78 353.56 297.46 351.78 238.35 245.48 300.55 140.96 421.87 142.74"/>
          <path class="cls-3" d="M237.07,245.46l.32-.55,62.54-105.07,122.6,1.8,59.74,107.42-62.86,105.63-122.6-1.8-.32-.57-59.42-106.86ZM301.18,142.09l-61.54,103.41,58.49,105.17,120.02,1.76,61.54-103.41-58.49-105.17-120.02-1.76Z"/>
        </g>
        <g class="cls-2">
          <polygon class="cls-3" points="185.74 140.23 244.85 246.52 182.65 351.05 61.33 349.27 2.23 242.97 64.42 138.46 185.74 140.23"/>
          <path class="cls-3" d="M.94,242.95l.32-.55,62.54-105.07,122.6,1.8,59.74,107.42-62.86,105.63-122.6-1.8-.32-.57L.94,242.95ZM65.06,139.58L3.51,242.99l58.49,105.17,120.02,1.76,61.54-103.41-58.49-105.17-120.02-1.76Z"/>
        </g>
      </g>
    </g>
  </g>
</svg>