<?xml version="1.0" encoding="UTF-8"?>
<svg xmlns="http://www.w3.org/2000/svg" xmlns:xlink="http://www.w3.org/1999/xlink" viewBox="0 0 565 564">
  <defs>
    <style>
      .cls-1 {
        stroke-width: 12.97px;
      }

      .cls-1, .cls-2 {
        fill: none;
        stroke: #af9cdf;
      }

      .cls-1, .cls-2, .cls-3 {
        stroke-miterlimit: 10;
      }

      .cls-4 {
        isolation: isolate;
      }

      .cls-5 {
        mix-blend-mode: overlay;
        opacity: .2;
      }

      .cls-2 {
        stroke-width: 19.46px;
      }

      .cls-6 {
        fill: #f1bf30;
        filter: url(#drop-shadow-1);
      }

      .cls-3 {
        fill: #d7ccf3;
        stroke: #a8b3ec;
        stroke-width: 1.04px;
      }

      .cls-7 {
        fill: #af9cdf;
      }
    </style>
    <filter id="drop-shadow-1" x="0" y="0" width="565" height="564" filterUnits="userSpaceOnUse">
      <feOffset dx="45.41" dy="45.41"/>
      <feGaussianBlur result="blur" stdDeviation="32.44"/>
      <feFlood flood-color="#000" flood-opacity=".75"/>
      <feComposite in2="blur" operator="in"/>
      <feComposite in="SourceGraphic"/>
    </filter>
  </defs>
  <g class="cls-4">
    <g id="Layer_1" data-name="Layer 1">
      <g>
        <rect class="cls-6" x="52.39" y="52.03" width="368.64" height="368.64" rx="184.32" ry="184.32" transform="translate(473.42 472.71) rotate(180)"/>
        <path class="cls-7" d="M128.25,238.61c.69,55.14,45.76,101.51,102.19,103.53.22,4.62.44,9.24.66,13.86-66.33.16-120.6-53.9-121.09-118.73-.5-66.54,55.81-122.24,123.88-120.51-.37,5.22-.75,10.43-1.12,15.65-58.36.82-105.24,49.25-104.53,106.21Z"/>
        <path class="cls-2" d="M171.96,223.9c19.28,23.23,38.55,46.46,57.83,69.69,23.38-50.87,46.76-101.73,70.14-152.6"/>
        <g>
          <path class="cls-1" d="M265.08,305.19c23.23-.49,46.46-.99,69.69-1.48"/>
          <path class="cls-1" d="M299.19,266.92c.49,23.23.99,46.46,1.48,69.69"/>
        </g>
        <g>
          <g class="cls-5">
            <polygon class="cls-3" points="168.31 115.23 234.54 76.23 301.54 113.91 302.3 190.58 236.06 229.57 169.07 191.9 168.31 115.23"/>
            <path class="cls-3" d="M236.07,230.38l-.35-.19-67.35-37.88-.77-77.48,66.94-39.41,67.71,38.07.77,77.48-.36.21-66.59,39.2ZM169.77,191.48l66.28,37.27,65.53-38.58-.75-75.85-66.28-37.27-65.53,38.58.75,75.85Z"/>
          </g>
          <g class="cls-5">
            <polygon class="cls-3" points="169.83 268.56 236.06 229.57 303.06 267.24 303.82 343.91 237.58 382.9 170.59 345.23 169.83 268.56"/>
            <path class="cls-3" d="M237.59,383.71l-.35-.19-67.35-37.88-.77-77.48,66.94-39.41,67.71,38.07.77,77.48-.36.21-66.59,39.2ZM171.29,344.81l66.28,37.27,65.53-38.58-.75-75.85-66.28-37.27-65.53,38.58.75,75.85Z"/>
          </g>
          <g class="cls-5">
            <polygon class="cls-3" points="350.62 165.02 387.98 232.19 348.67 298.25 272.01 297.12 234.66 229.94 273.96 163.9 350.62 165.02"/>
            <path class="cls-3" d="M233.85,229.93l.2-.35,39.52-66.4,77.48,1.14,37.75,67.88-39.72,66.75-77.48-1.14-.2-.36-37.55-67.53ZM274.36,164.61l-38.89,65.35,36.96,66.46,75.85,1.11,38.89-65.35-36.96-66.46-75.85-1.11Z"/>
          </g>
          <g class="cls-5">
            <polygon class="cls-3" points="201.41 163.44 238.76 230.61 199.45 296.66 122.79 295.54 85.44 228.36 124.74 162.32 201.41 163.44"/>
            <path class="cls-3" d="M84.63,228.35l.2-.35,39.52-66.4,77.48,1.14,37.75,67.88-39.72,66.75-77.48-1.14-.2-.36-37.55-67.53ZM125.14,163.03l-38.89,65.35,36.96,66.46,75.85,1.11,38.89-65.35-36.96-66.46-75.85-1.11Z"/>
          </g>
        </g>
      </g>
    </g>
  </g>
</svg>