<?xml version="1.0" encoding="UTF-8"?>
<svg xmlns="http://www.w3.org/2000/svg" viewBox="0 0 368.64 368.64">
  <defs>
    <style>
      .cls-1 {
        stroke-width: 12.97px;
      }

      .cls-1, .cls-2 {
        fill: none;
        stroke: #af9cdf;
      }

      .cls-1, .cls-2, .cls-3 {
        stroke-miterlimit: 10;
      }

      .cls-4 {
        isolation: isolate;
      }

      .cls-5 {
        mix-blend-mode: overlay;
        opacity: .2;
      }

      .cls-2 {
        stroke-width: 19.46px;
      }

      .cls-3 {
        fill: #d7ccf3;
        stroke: #a8b3ec;
        stroke-width: 1.04px;
      }

      .cls-6 {
        fill: #f1bf30;
      }

      .cls-7 {
        fill: #af9cdf;
      }
    </style>
  </defs>
  <g class="cls-4">
    <g id="Layer_1" data-name="Layer 1">
      <g>
        <rect class="cls-6" x="0" y="0" width="368.64" height="368.64" rx="184.32" ry="184.32" transform="translate(368.64 368.64) rotate(180)"/>
        <path class="cls-7" d="M75.86,186.58c.69,55.14,45.76,101.51,102.19,103.53.22,4.62.44,9.24.66,13.86-66.33.16-120.6-53.9-121.09-118.73-.5-66.54,55.81-122.24,123.88-120.51-.37,5.22-.75,10.43-1.12,15.65-58.36.82-105.24,49.25-104.53,106.21Z"/>
        <path class="cls-2" d="M119.57,171.86c19.28,23.23,38.55,46.46,57.83,69.69,23.38-50.87,46.76-101.73,70.14-152.6"/>
        <g>
          <path class="cls-1" d="M212.69,253.16c23.23-.49,46.46-.99,69.69-1.48"/>
          <path class="cls-1" d="M246.79,214.88c.49,23.23.99,46.46,1.48,69.69"/>
        </g>
        <g>
          <g class="cls-5">
            <polygon class="cls-3" points="115.92 63.2 182.15 24.2 249.15 61.88 249.91 138.54 183.67 177.53 116.68 139.86 115.92 63.2"/>
            <path class="cls-3" d="M183.68,178.34l-.35-.19-67.35-37.88-.77-77.48,66.94-39.41,67.71,38.07.77,77.48-.36.21-66.59,39.2ZM117.38,139.45l66.28,37.27,65.53-38.58-.75-75.85-66.28-37.27-65.53,38.58.75,75.85Z"/>
          </g>
          <g class="cls-5">
            <polygon class="cls-3" points="117.44 216.53 183.67 177.54 250.67 215.21 251.43 291.88 185.19 330.87 118.2 293.2 117.44 216.53"/>
            <path class="cls-3" d="M185.2,331.68l-.35-.19-67.35-37.88-.77-77.48,66.94-39.41,67.71,38.07.77,77.48-.36.21-66.59,39.2ZM118.9,292.78l66.28,37.27,65.53-38.58-.75-75.85-66.28-37.27-65.53,38.58.75,75.85Z"/>
          </g>
          <g class="cls-5">
            <polygon class="cls-3" points="298.23 112.99 335.59 180.16 296.28 246.21 219.62 245.09 182.26 177.91 221.57 111.87 298.23 112.99"/>
            <path class="cls-3" d="M181.45,177.9l.2-.35,39.52-66.4,77.48,1.14,37.75,67.88-39.72,66.75-77.48-1.14-.2-.36-37.55-67.53ZM221.97,112.58l-38.89,65.35,36.96,66.46,75.85,1.11,38.89-65.35-36.96-66.46-75.85-1.11Z"/>
          </g>
          <g class="cls-5">
            <polygon class="cls-3" points="149.01 111.41 186.37 178.57 147.06 244.63 70.4 243.51 33.05 176.33 72.35 110.28 149.01 111.41"/>
            <path class="cls-3" d="M32.24,176.32l.2-.35,39.52-66.4,77.48,1.14,37.75,67.88-39.72,66.75-77.48-1.14-.2-.36-37.55-67.53ZM72.75,110.99l-38.89,65.35,36.96,66.46,75.85,1.11,38.89-65.35-36.96-66.46-75.85-1.11Z"/>
          </g>
        </g>
      </g>
    </g>
  </g>
</svg>